<mxfile host="app.diagrams.net" modified="2024-04-11T13:55:49.278Z" agent="Mozilla/5.0 (Windows NT 10.0; Win64; x64) AppleWebKit/537.36 (KHTML, like Gecko) Chrome/123.0.0.0 Safari/537.36" etag="vBcNoLYo1T2CJviNKqAv" version="24.2.3" type="device">
  <diagram id="C5RBs43oDa-KdzZeNtuy" name="Page-1">
    <mxGraphModel dx="2261" dy="746" grid="0" gridSize="13" guides="1" tooltips="1" connect="1" arrows="1" fold="1" page="1" pageScale="1" pageWidth="827" pageHeight="1169" math="0" shadow="0">
      <root>
        <mxCell id="WIyWlLk6GJQsqaUBKTNV-0" />
        <mxCell id="WIyWlLk6GJQsqaUBKTNV-1" parent="WIyWlLk6GJQsqaUBKTNV-0" />
        <mxCell id="zkfFHV4jXpPFQw0GAbJ--17" value="Cinema" style="swimlane;fontStyle=0;align=center;verticalAlign=top;childLayout=stackLayout;horizontal=1;startSize=26;horizontalStack=0;resizeParent=1;resizeLast=0;collapsible=1;marginBottom=0;rounded=0;shadow=0;strokeWidth=1;" parent="WIyWlLk6GJQsqaUBKTNV-1" vertex="1">
          <mxGeometry x="-368" y="374" width="160" height="123" as="geometry">
            <mxRectangle x="550" y="140" width="160" height="26" as="alternateBounds" />
          </mxGeometry>
        </mxCell>
        <mxCell id="zkfFHV4jXpPFQw0GAbJ--18" value="- cinemaId: int" style="text;align=left;verticalAlign=top;spacingLeft=4;spacingRight=4;overflow=hidden;rotatable=0;points=[[0,0.5],[1,0.5]];portConstraint=eastwest;" parent="zkfFHV4jXpPFQw0GAbJ--17" vertex="1">
          <mxGeometry y="26" width="160" height="15" as="geometry" />
        </mxCell>
        <mxCell id="zkfFHV4jXpPFQw0GAbJ--21" value="- cinemaName: String" style="text;align=left;verticalAlign=top;spacingLeft=4;spacingRight=4;overflow=hidden;rotatable=0;points=[[0,0.5],[1,0.5]];portConstraint=eastwest;rounded=0;shadow=0;html=0;" parent="zkfFHV4jXpPFQw0GAbJ--17" vertex="1">
          <mxGeometry y="41" width="160" height="15" as="geometry" />
        </mxCell>
        <mxCell id="zkfFHV4jXpPFQw0GAbJ--19" value="- cityId: int" style="text;align=left;verticalAlign=top;spacingLeft=4;spacingRight=4;overflow=hidden;rotatable=0;points=[[0,0.5],[1,0.5]];portConstraint=eastwest;rounded=0;shadow=0;html=0;" parent="zkfFHV4jXpPFQw0GAbJ--17" vertex="1">
          <mxGeometry y="56" width="160" height="15" as="geometry" />
        </mxCell>
        <mxCell id="zkfFHV4jXpPFQw0GAbJ--20" value="- cityName: String" style="text;align=left;verticalAlign=top;spacingLeft=4;spacingRight=4;overflow=hidden;rotatable=0;points=[[0,0.5],[1,0.5]];portConstraint=eastwest;rounded=0;shadow=0;html=0;fontFamily=Helvetica;" parent="zkfFHV4jXpPFQw0GAbJ--17" vertex="1">
          <mxGeometry y="71" width="160" height="24" as="geometry" />
        </mxCell>
        <mxCell id="zkfFHV4jXpPFQw0GAbJ--23" value="" style="line;html=1;strokeWidth=1;align=left;verticalAlign=middle;spacingTop=-1;spacingLeft=3;spacingRight=3;rotatable=0;labelPosition=right;points=[];portConstraint=eastwest;" parent="zkfFHV4jXpPFQw0GAbJ--17" vertex="1">
          <mxGeometry y="95" width="160" height="8" as="geometry" />
        </mxCell>
        <mxCell id="QFWBWIgybLpeq1G7iUkS-0" value="City" style="swimlane;fontStyle=0;align=center;verticalAlign=top;childLayout=stackLayout;horizontal=1;startSize=26;horizontalStack=0;resizeParent=1;resizeLast=0;collapsible=1;marginBottom=0;rounded=0;shadow=0;strokeWidth=1;" parent="WIyWlLk6GJQsqaUBKTNV-1" vertex="1">
          <mxGeometry x="-591" y="200" width="149" height="95" as="geometry">
            <mxRectangle x="550" y="140" width="160" height="26" as="alternateBounds" />
          </mxGeometry>
        </mxCell>
        <mxCell id="QFWBWIgybLpeq1G7iUkS-2" value="- cityId: int" style="text;align=left;verticalAlign=top;spacingLeft=4;spacingRight=4;overflow=hidden;rotatable=0;points=[[0,0.5],[1,0.5]];portConstraint=eastwest;rounded=0;shadow=0;html=0;" parent="QFWBWIgybLpeq1G7iUkS-0" vertex="1">
          <mxGeometry y="26" width="149" height="14" as="geometry" />
        </mxCell>
        <mxCell id="QFWBWIgybLpeq1G7iUkS-4" value="- cityName: String" style="text;align=left;verticalAlign=top;spacingLeft=4;spacingRight=4;overflow=hidden;rotatable=0;points=[[0,0.5],[1,0.5]];portConstraint=eastwest;rounded=0;shadow=0;html=0;fontFamily=Helvetica;" parent="QFWBWIgybLpeq1G7iUkS-0" vertex="1">
          <mxGeometry y="40" width="149" height="27" as="geometry" />
        </mxCell>
        <mxCell id="QFWBWIgybLpeq1G7iUkS-5" value="" style="line;html=1;strokeWidth=1;align=left;verticalAlign=middle;spacingTop=-1;spacingLeft=3;spacingRight=3;rotatable=0;labelPosition=right;points=[];portConstraint=eastwest;" parent="QFWBWIgybLpeq1G7iUkS-0" vertex="1">
          <mxGeometry y="67" width="149" height="8" as="geometry" />
        </mxCell>
        <mxCell id="QFWBWIgybLpeq1G7iUkS-7" value="Comment" style="swimlane;fontStyle=0;align=center;verticalAlign=top;childLayout=stackLayout;horizontal=1;startSize=26;horizontalStack=0;resizeParent=1;resizeLast=0;collapsible=1;marginBottom=0;rounded=0;shadow=0;strokeWidth=1;" parent="WIyWlLk6GJQsqaUBKTNV-1" vertex="1">
          <mxGeometry x="-69" y="59" width="167" height="157" as="geometry">
            <mxRectangle x="550" y="140" width="160" height="26" as="alternateBounds" />
          </mxGeometry>
        </mxCell>
        <mxCell id="QFWBWIgybLpeq1G7iUkS-8" value="- commentId: int" style="text;align=left;verticalAlign=top;spacingLeft=4;spacingRight=4;overflow=hidden;rotatable=0;points=[[0,0.5],[1,0.5]];portConstraint=eastwest;" parent="QFWBWIgybLpeq1G7iUkS-7" vertex="1">
          <mxGeometry y="26" width="167" height="15" as="geometry" />
        </mxCell>
        <mxCell id="QFWBWIgybLpeq1G7iUkS-9" value="- commentText: String" style="text;align=left;verticalAlign=top;spacingLeft=4;spacingRight=4;overflow=hidden;rotatable=0;points=[[0,0.5],[1,0.5]];portConstraint=eastwest;rounded=0;shadow=0;html=0;" parent="QFWBWIgybLpeq1G7iUkS-7" vertex="1">
          <mxGeometry y="41" width="167" height="15" as="geometry" />
        </mxCell>
        <mxCell id="QFWBWIgybLpeq1G7iUkS-10" value="- rating: int" style="text;align=left;verticalAlign=top;spacingLeft=4;spacingRight=4;overflow=hidden;rotatable=0;points=[[0,0.5],[1,0.5]];portConstraint=eastwest;rounded=0;shadow=0;html=0;" parent="QFWBWIgybLpeq1G7iUkS-7" vertex="1">
          <mxGeometry y="56" width="167" height="15" as="geometry" />
        </mxCell>
        <mxCell id="QFWBWIgybLpeq1G7iUkS-11" value="- userId: int" style="text;align=left;verticalAlign=top;spacingLeft=4;spacingRight=4;overflow=hidden;rotatable=0;points=[[0,0.5],[1,0.5]];portConstraint=eastwest;rounded=0;shadow=0;html=0;fontFamily=Helvetica;" parent="QFWBWIgybLpeq1G7iUkS-7" vertex="1">
          <mxGeometry y="71" width="167" height="16" as="geometry" />
        </mxCell>
        <mxCell id="QFWBWIgybLpeq1G7iUkS-14" value="- filmId: int&#xa;- filmName: String&#xa;" style="text;align=left;verticalAlign=top;spacingLeft=4;spacingRight=4;overflow=hidden;rotatable=0;points=[[0,0.5],[1,0.5]];portConstraint=eastwest;rounded=0;shadow=0;html=0;fontFamily=Helvetica;" parent="QFWBWIgybLpeq1G7iUkS-7" vertex="1">
          <mxGeometry y="87" width="167" height="36" as="geometry" />
        </mxCell>
        <mxCell id="QFWBWIgybLpeq1G7iUkS-12" value="" style="line;html=1;strokeWidth=1;align=left;verticalAlign=middle;spacingTop=-1;spacingLeft=3;spacingRight=3;rotatable=0;labelPosition=right;points=[];portConstraint=eastwest;strokeColor=default;" parent="QFWBWIgybLpeq1G7iUkS-7" vertex="1">
          <mxGeometry y="123" width="167" height="15" as="geometry" />
        </mxCell>
        <mxCell id="QFWBWIgybLpeq1G7iUkS-16" value="Film" style="swimlane;fontStyle=0;align=center;verticalAlign=top;childLayout=stackLayout;horizontal=1;startSize=26;horizontalStack=0;resizeParent=1;resizeLast=0;collapsible=1;marginBottom=0;rounded=0;shadow=0;strokeWidth=1;" parent="WIyWlLk6GJQsqaUBKTNV-1" vertex="1">
          <mxGeometry x="-71" y="291" width="171" height="348" as="geometry">
            <mxRectangle x="550" y="140" width="160" height="26" as="alternateBounds" />
          </mxGeometry>
        </mxCell>
        <mxCell id="QFWBWIgybLpeq1G7iUkS-17" value="- filmId: int&#xa;- filmName: String&#xa;- synopsis: String&#xa;- filmPage: String&#xa;- originalTitle: String&#xa;- genre: String&#xa;- nationality: String&#xa;- duration: int&#xa;- releaseYear: int&#xa;- distributor: String&#xa;- director: String&#xa;- actors: String&#xa;- classification: String&#xa;- otherData: String&#xa;- cinemaId: int&#xa;- cinemaName: String&#xa;&#xa;" style="text;align=left;verticalAlign=top;spacingLeft=4;spacingRight=4;overflow=hidden;rotatable=0;points=[[0,0.5],[1,0.5]];portConstraint=eastwest;" parent="QFWBWIgybLpeq1G7iUkS-16" vertex="1">
          <mxGeometry y="26" width="171" height="240" as="geometry" />
        </mxCell>
        <mxCell id="7yv851JCd8LvZN7wa118-31" value="Text" style="text;html=1;align=center;verticalAlign=middle;resizable=0;points=[];autosize=1;strokeColor=none;fillColor=none;strokeWidth=1;" vertex="1" parent="QFWBWIgybLpeq1G7iUkS-16">
          <mxGeometry y="266" width="171" height="26" as="geometry" />
        </mxCell>
        <mxCell id="QFWBWIgybLpeq1G7iUkS-22" value="" style="line;html=1;strokeWidth=1;align=left;verticalAlign=middle;spacingTop=-1;spacingLeft=3;spacingRight=3;rotatable=0;labelPosition=right;points=[];portConstraint=eastwest;" parent="QFWBWIgybLpeq1G7iUkS-16" vertex="1">
          <mxGeometry y="292" width="171" height="1" as="geometry" />
        </mxCell>
        <mxCell id="7yv851JCd8LvZN7wa118-6" value="&amp;nbsp;+ addFilm(): void&lt;div&gt;&amp;nbsp;+ changeFilm(): void&lt;/div&gt;&lt;div&gt;&amp;nbsp;+ removeFilm(): void&lt;/div&gt;" style="text;html=1;align=left;verticalAlign=middle;resizable=0;points=[];autosize=1;strokeColor=none;fillColor=none;" vertex="1" parent="QFWBWIgybLpeq1G7iUkS-16">
          <mxGeometry y="293" width="171" height="55" as="geometry" />
        </mxCell>
        <mxCell id="QFWBWIgybLpeq1G7iUkS-28" value="Theatre" style="swimlane;fontStyle=0;align=center;verticalAlign=top;childLayout=stackLayout;horizontal=1;startSize=26;horizontalStack=0;resizeParent=1;resizeLast=0;collapsible=1;marginBottom=0;rounded=0;shadow=0;strokeWidth=1;" parent="WIyWlLk6GJQsqaUBKTNV-1" vertex="1">
          <mxGeometry x="-541" y="572" width="160" height="193" as="geometry">
            <mxRectangle x="550" y="140" width="160" height="26" as="alternateBounds" />
          </mxGeometry>
        </mxCell>
        <mxCell id="QFWBWIgybLpeq1G7iUkS-29" value="- theatreId: int&#xa;- theatreName: String&#xa;- rowsCount: int&#xa;- columnsCount: int&#xa;- cinemaId: int&#xa;- cinemaName: String&#xa;" style="text;align=left;verticalAlign=top;spacingLeft=4;spacingRight=4;overflow=hidden;rotatable=0;points=[[0,0.5],[1,0.5]];portConstraint=eastwest;" parent="QFWBWIgybLpeq1G7iUkS-28" vertex="1">
          <mxGeometry y="26" width="160" height="94" as="geometry" />
        </mxCell>
        <mxCell id="QFWBWIgybLpeq1G7iUkS-30" value="" style="line;html=1;strokeWidth=1;align=left;verticalAlign=middle;spacingTop=-1;spacingLeft=3;spacingRight=3;rotatable=0;labelPosition=right;points=[];portConstraint=eastwest;" parent="QFWBWIgybLpeq1G7iUkS-28" vertex="1">
          <mxGeometry y="120" width="160" height="8" as="geometry" />
        </mxCell>
        <mxCell id="7yv851JCd8LvZN7wa118-9" value="&amp;nbsp;+ addTheatre(): void&lt;div&gt;&amp;nbsp;+ changeTheatre(): void&lt;/div&gt;&lt;div&gt;&amp;nbsp;+ removeTheatre(): void&lt;/div&gt;" style="text;html=1;align=left;verticalAlign=middle;resizable=0;points=[];autosize=1;strokeColor=none;fillColor=none;" vertex="1" parent="QFWBWIgybLpeq1G7iUkS-28">
          <mxGeometry y="128" width="160" height="55" as="geometry" />
        </mxCell>
        <mxCell id="QFWBWIgybLpeq1G7iUkS-32" value="Session" style="swimlane;fontStyle=0;align=center;verticalAlign=top;childLayout=stackLayout;horizontal=1;startSize=26;horizontalStack=0;resizeParent=1;resizeLast=0;collapsible=1;marginBottom=0;rounded=0;shadow=0;strokeWidth=1;" parent="WIyWlLk6GJQsqaUBKTNV-1" vertex="1">
          <mxGeometry x="-293" y="572" width="162" height="194" as="geometry">
            <mxRectangle x="550" y="140" width="160" height="26" as="alternateBounds" />
          </mxGeometry>
        </mxCell>
        <mxCell id="QFWBWIgybLpeq1G7iUkS-33" value="- sessionId: int&#xa;- sessionDate: Date&#xa;- sessionHour: Date&#xa;- cinemaId: int&#xa;- cinemaName: String&#xa;- filmId: int&#xa;- filmName: String&#xa;- theatreId: int&#xa;- theatreName: String&#xa;" style="text;align=left;verticalAlign=top;spacingLeft=4;spacingRight=4;overflow=hidden;rotatable=0;points=[[0,0.5],[1,0.5]];portConstraint=eastwest;" parent="QFWBWIgybLpeq1G7iUkS-32" vertex="1">
          <mxGeometry y="26" width="162" height="140" as="geometry" />
        </mxCell>
        <mxCell id="QFWBWIgybLpeq1G7iUkS-34" value="" style="line;html=1;strokeWidth=1;align=left;verticalAlign=middle;spacingTop=-1;spacingLeft=3;spacingRight=3;rotatable=0;labelPosition=right;points=[];portConstraint=eastwest;" parent="QFWBWIgybLpeq1G7iUkS-32" vertex="1">
          <mxGeometry y="166" width="162" height="8" as="geometry" />
        </mxCell>
        <mxCell id="QFWBWIgybLpeq1G7iUkS-36" value="Ticket" style="swimlane;fontStyle=0;align=center;verticalAlign=top;childLayout=stackLayout;horizontal=1;startSize=26;horizontalStack=0;resizeParent=1;resizeLast=0;collapsible=1;marginBottom=0;rounded=0;shadow=0;strokeWidth=1;" parent="WIyWlLk6GJQsqaUBKTNV-1" vertex="1">
          <mxGeometry x="-791.5" y="604" width="146" height="137" as="geometry">
            <mxRectangle x="550" y="140" width="160" height="26" as="alternateBounds" />
          </mxGeometry>
        </mxCell>
        <mxCell id="QFWBWIgybLpeq1G7iUkS-37" value="- ticketId: int&#xa;- rowNumber: int&#xa;- columnNumber: int&#xa;- ticketDate: Date&#xa;- ticketTime: Date&#xa;" style="text;align=left;verticalAlign=top;spacingLeft=4;spacingRight=4;overflow=hidden;rotatable=0;points=[[0,0.5],[1,0.5]];portConstraint=eastwest;" parent="QFWBWIgybLpeq1G7iUkS-36" vertex="1">
          <mxGeometry y="26" width="146" height="83" as="geometry" />
        </mxCell>
        <mxCell id="QFWBWIgybLpeq1G7iUkS-38" value="" style="line;html=1;strokeWidth=1;align=left;verticalAlign=middle;spacingTop=-1;spacingLeft=3;spacingRight=3;rotatable=0;labelPosition=right;points=[];portConstraint=eastwest;" parent="QFWBWIgybLpeq1G7iUkS-36" vertex="1">
          <mxGeometry y="109" width="146" height="10" as="geometry" />
        </mxCell>
        <mxCell id="QFWBWIgybLpeq1G7iUkS-40" value="User" style="swimlane;fontStyle=0;align=center;verticalAlign=top;childLayout=stackLayout;horizontal=1;startSize=26;horizontalStack=0;resizeParent=1;resizeLast=0;collapsible=1;marginBottom=0;rounded=0;shadow=0;strokeWidth=1;" parent="WIyWlLk6GJQsqaUBKTNV-1" vertex="1">
          <mxGeometry x="-789" y="62" width="141" height="154" as="geometry">
            <mxRectangle x="-789" y="62" width="160" height="26" as="alternateBounds" />
          </mxGeometry>
        </mxCell>
        <mxCell id="QFWBWIgybLpeq1G7iUkS-41" value="- userId: int&#xa;- firstName: String&#xa;- lastName: String&#xa;- username: String&#xa;- password: String&#xa;- email: String&#xa;" style="text;align=left;verticalAlign=top;spacingLeft=4;spacingRight=4;overflow=hidden;rotatable=0;points=[[0,0.5],[1,0.5]];portConstraint=eastwest;" parent="QFWBWIgybLpeq1G7iUkS-40" vertex="1">
          <mxGeometry y="26" width="141" height="100" as="geometry" />
        </mxCell>
        <mxCell id="QFWBWIgybLpeq1G7iUkS-42" value="" style="line;html=1;strokeWidth=1;align=left;verticalAlign=middle;spacingTop=-1;spacingLeft=3;spacingRight=3;rotatable=0;labelPosition=right;points=[];portConstraint=eastwest;" parent="QFWBWIgybLpeq1G7iUkS-40" vertex="1">
          <mxGeometry y="126" width="141" height="8" as="geometry" />
        </mxCell>
        <mxCell id="7yv851JCd8LvZN7wa118-1" value="Reservation" style="swimlane;fontStyle=0;align=center;verticalAlign=top;childLayout=stackLayout;horizontal=1;startSize=26;horizontalStack=0;resizeParent=1;resizeLast=0;collapsible=1;marginBottom=0;rounded=0;shadow=0;strokeWidth=1;" vertex="1" parent="WIyWlLk6GJQsqaUBKTNV-1">
          <mxGeometry x="-809" y="336" width="182" height="157" as="geometry">
            <mxRectangle x="550" y="140" width="160" height="26" as="alternateBounds" />
          </mxGeometry>
        </mxCell>
        <mxCell id="7yv851JCd8LvZN7wa118-2" value="- reservationId: int&#xa;- userId: int&#xa;- ticketId: int&#xa;" style="text;align=left;verticalAlign=top;spacingLeft=4;spacingRight=4;overflow=hidden;rotatable=0;points=[[0,0.5],[1,0.5]];portConstraint=eastwest;" vertex="1" parent="7yv851JCd8LvZN7wa118-1">
          <mxGeometry y="26" width="182" height="58" as="geometry" />
        </mxCell>
        <mxCell id="7yv851JCd8LvZN7wa118-3" value="" style="line;html=1;strokeWidth=1;align=left;verticalAlign=middle;spacingTop=-1;spacingLeft=3;spacingRight=3;rotatable=0;labelPosition=right;points=[];portConstraint=eastwest;" vertex="1" parent="7yv851JCd8LvZN7wa118-1">
          <mxGeometry y="84" width="182" height="8" as="geometry" />
        </mxCell>
        <mxCell id="7yv851JCd8LvZN7wa118-8" value="&amp;nbsp;+ addReservation(): void&lt;div&gt;&amp;nbsp;+ changeReservation(): void&lt;/div&gt;&lt;div&gt;&amp;nbsp;+ removeReservation(): void&lt;/div&gt;" style="text;html=1;align=left;verticalAlign=middle;resizable=0;points=[];autosize=1;strokeColor=none;fillColor=none;" vertex="1" parent="7yv851JCd8LvZN7wa118-1">
          <mxGeometry y="92" width="182" height="55" as="geometry" />
        </mxCell>
        <mxCell id="7yv851JCd8LvZN7wa118-11" value="1" style="endArrow=none;html=1;endSize=12;startArrow=diamondThin;startSize=14;startFill=0;edgeStyle=orthogonalEdgeStyle;align=left;verticalAlign=bottom;rounded=0;exitX=1;exitY=0.5;exitDx=0;exitDy=0;entryX=0;entryY=0.5;entryDx=0;entryDy=0;endFill=0;" edge="1" parent="WIyWlLk6GJQsqaUBKTNV-1" source="QFWBWIgybLpeq1G7iUkS-4" target="zkfFHV4jXpPFQw0GAbJ--19">
          <mxGeometry x="-0.9862" y="6" relative="1" as="geometry">
            <mxPoint x="-364" y="398" as="sourcePoint" />
            <mxPoint x="-338" y="398" as="targetPoint" />
            <mxPoint y="1" as="offset" />
          </mxGeometry>
        </mxCell>
        <mxCell id="7yv851JCd8LvZN7wa118-12" value="1" style="endArrow=none;html=1;endSize=12;startArrow=diamondThin;startSize=14;startFill=1;edgeStyle=orthogonalEdgeStyle;align=left;verticalAlign=bottom;rounded=0;entryX=0.5;entryY=0;entryDx=0;entryDy=0;exitX=0.5;exitY=1;exitDx=0;exitDy=0;endFill=0;" edge="1" parent="WIyWlLk6GJQsqaUBKTNV-1" source="zkfFHV4jXpPFQw0GAbJ--17" target="QFWBWIgybLpeq1G7iUkS-28">
          <mxGeometry x="-0.7677" y="5" relative="1" as="geometry">
            <mxPoint x="-186" y="498" as="sourcePoint" />
            <mxPoint x="-67" y="468" as="targetPoint" />
            <mxPoint as="offset" />
          </mxGeometry>
        </mxCell>
        <mxCell id="7yv851JCd8LvZN7wa118-14" value="1" style="endArrow=none;html=1;endSize=12;startArrow=diamondThin;startSize=14;startFill=0;edgeStyle=orthogonalEdgeStyle;align=left;verticalAlign=bottom;rounded=0;exitX=1;exitY=0.5;exitDx=0;exitDy=0;entryX=0;entryY=0.5;entryDx=0;entryDy=0;endFill=0;" edge="1" parent="WIyWlLk6GJQsqaUBKTNV-1" source="QFWBWIgybLpeq1G7iUkS-41" target="QFWBWIgybLpeq1G7iUkS-11">
          <mxGeometry x="-0.9645" relative="1" as="geometry">
            <mxPoint x="-201" y="138" as="sourcePoint" />
            <mxPoint x="-41" y="138" as="targetPoint" />
            <mxPoint as="offset" />
          </mxGeometry>
        </mxCell>
        <mxCell id="7yv851JCd8LvZN7wa118-15" value="" style="html=1;verticalAlign=bottom;endArrow=open;dashed=1;endSize=8;curved=0;rounded=0;entryX=0.5;entryY=1;entryDx=0;entryDy=0;exitX=0.5;exitY=0;exitDx=0;exitDy=0;" edge="1" parent="WIyWlLk6GJQsqaUBKTNV-1" source="7yv851JCd8LvZN7wa118-1" target="QFWBWIgybLpeq1G7iUkS-40">
          <mxGeometry relative="1" as="geometry">
            <mxPoint x="-685" y="295" as="sourcePoint" />
            <mxPoint x="-765" y="295" as="targetPoint" />
          </mxGeometry>
        </mxCell>
        <mxCell id="7yv851JCd8LvZN7wa118-16" value="1" style="endArrow=none;html=1;endSize=12;startArrow=diamondThin;startSize=14;startFill=1;edgeStyle=orthogonalEdgeStyle;align=left;verticalAlign=bottom;rounded=0;entryX=1;entryY=0.5;entryDx=0;entryDy=0;endFill=0;exitX=0.012;exitY=0.7;exitDx=0;exitDy=0;exitPerimeter=0;" edge="1" parent="WIyWlLk6GJQsqaUBKTNV-1" source="QFWBWIgybLpeq1G7iUkS-17" target="QFWBWIgybLpeq1G7iUkS-33">
          <mxGeometry x="-0.6031" y="6" relative="1" as="geometry">
            <mxPoint x="-70" y="482" as="sourcePoint" />
            <mxPoint x="-24" y="400" as="targetPoint" />
            <mxPoint as="offset" />
          </mxGeometry>
        </mxCell>
        <mxCell id="7yv851JCd8LvZN7wa118-18" value="1..*" style="endArrow=none;html=1;endSize=12;startArrow=diamondThin;startSize=14;startFill=1;edgeStyle=orthogonalEdgeStyle;align=left;verticalAlign=bottom;rounded=0;entryX=1;entryY=0.5;entryDx=0;entryDy=0;exitX=-0.006;exitY=0.787;exitDx=0;exitDy=0;exitPerimeter=0;endFill=0;" edge="1" parent="WIyWlLk6GJQsqaUBKTNV-1" source="QFWBWIgybLpeq1G7iUkS-29" target="QFWBWIgybLpeq1G7iUkS-37">
          <mxGeometry x="0.947" relative="1" as="geometry">
            <mxPoint x="-521" y="664" as="sourcePoint" />
            <mxPoint x="-480" y="523" as="targetPoint" />
            <mxPoint as="offset" />
          </mxGeometry>
        </mxCell>
        <mxCell id="7yv851JCd8LvZN7wa118-20" value="1" style="endArrow=none;html=1;endSize=12;startArrow=diamondThin;startSize=14;startFill=0;edgeStyle=orthogonalEdgeStyle;align=left;verticalAlign=bottom;rounded=0;entryX=0.5;entryY=0;entryDx=0;entryDy=0;exitX=0.5;exitY=1;exitDx=0;exitDy=0;endFill=0;" edge="1" parent="WIyWlLk6GJQsqaUBKTNV-1" source="7yv851JCd8LvZN7wa118-1" target="QFWBWIgybLpeq1G7iUkS-36">
          <mxGeometry x="1" y="4" relative="1" as="geometry">
            <mxPoint x="-729" y="507" as="sourcePoint" />
            <mxPoint x="-565" y="551" as="targetPoint" />
            <mxPoint as="offset" />
          </mxGeometry>
        </mxCell>
        <mxCell id="7yv851JCd8LvZN7wa118-21" value="" style="endArrow=none;endFill=0;endSize=24;html=1;rounded=0;exitX=1;exitY=0.5;exitDx=0;exitDy=0;entryX=0;entryY=0.5;entryDx=0;entryDy=0;" edge="1" parent="WIyWlLk6GJQsqaUBKTNV-1" source="zkfFHV4jXpPFQw0GAbJ--19" target="QFWBWIgybLpeq1G7iUkS-17">
          <mxGeometry width="160" relative="1" as="geometry">
            <mxPoint x="-213" y="354" as="sourcePoint" />
            <mxPoint x="-53" y="354" as="targetPoint" />
          </mxGeometry>
        </mxCell>
        <mxCell id="7yv851JCd8LvZN7wa118-22" value="" style="html=1;verticalAlign=bottom;endArrow=open;dashed=1;endSize=8;curved=0;rounded=0;entryX=0;entryY=0.5;entryDx=0;entryDy=0;exitX=1;exitY=0.745;exitDx=0;exitDy=0;exitPerimeter=0;" edge="1" parent="WIyWlLk6GJQsqaUBKTNV-1" source="QFWBWIgybLpeq1G7iUkS-29" target="QFWBWIgybLpeq1G7iUkS-33">
          <mxGeometry relative="1" as="geometry">
            <mxPoint x="-305" y="755" as="sourcePoint" />
            <mxPoint x="-334" y="679" as="targetPoint" />
          </mxGeometry>
        </mxCell>
        <mxCell id="7yv851JCd8LvZN7wa118-23" value="&lt;font style=&quot;font-size: 11px;&quot;&gt;*&lt;/font&gt;" style="text;html=1;align=center;verticalAlign=middle;resizable=0;points=[];autosize=1;strokeColor=none;fillColor=none;" vertex="1" parent="WIyWlLk6GJQsqaUBKTNV-1">
          <mxGeometry x="-103" y="118" width="22" height="26" as="geometry" />
        </mxCell>
        <mxCell id="7yv851JCd8LvZN7wa118-26" value="&lt;font style=&quot;font-size: 11px;&quot;&gt;1..*&lt;/font&gt;" style="text;html=1;align=center;verticalAlign=middle;resizable=0;points=[];autosize=1;strokeColor=none;fillColor=none;" vertex="1" parent="WIyWlLk6GJQsqaUBKTNV-1">
          <mxGeometry x="-399" y="416" width="35" height="26" as="geometry" />
        </mxCell>
        <mxCell id="7yv851JCd8LvZN7wa118-29" value="&lt;font style=&quot;font-size: 11px;&quot;&gt;1..*&lt;/font&gt;" style="text;html=1;align=center;verticalAlign=middle;resizable=0;points=[];autosize=1;strokeColor=none;fillColor=none;" vertex="1" parent="WIyWlLk6GJQsqaUBKTNV-1">
          <mxGeometry x="-491" y="541" width="35" height="26" as="geometry" />
        </mxCell>
        <mxCell id="7yv851JCd8LvZN7wa118-30" value="&lt;font style=&quot;font-size: 11px;&quot;&gt;1..*&lt;/font&gt;" style="text;html=1;align=center;verticalAlign=middle;resizable=0;points=[];autosize=1;strokeColor=none;fillColor=none;" vertex="1" parent="WIyWlLk6GJQsqaUBKTNV-1">
          <mxGeometry x="-212" y="437" width="35" height="26" as="geometry" />
        </mxCell>
        <mxCell id="7yv851JCd8LvZN7wa118-32" value="&lt;font style=&quot;font-size: 11px;&quot;&gt;1..*&lt;/font&gt;" style="text;html=1;align=center;verticalAlign=middle;resizable=0;points=[];autosize=1;strokeColor=none;fillColor=none;" vertex="1" parent="WIyWlLk6GJQsqaUBKTNV-1">
          <mxGeometry x="-106" y="437" width="35" height="26" as="geometry" />
        </mxCell>
        <mxCell id="7yv851JCd8LvZN7wa118-34" value="&lt;font style=&quot;font-size: 11px;&quot;&gt;1..*&lt;/font&gt;" style="text;html=1;align=center;verticalAlign=middle;resizable=0;points=[];autosize=1;strokeColor=none;fillColor=none;" vertex="1" parent="WIyWlLk6GJQsqaUBKTNV-1">
          <mxGeometry x="-125" y="665" width="35" height="26" as="geometry" />
        </mxCell>
        <mxCell id="7yv851JCd8LvZN7wa118-35" value="1" style="endArrow=none;html=1;endSize=12;startArrow=diamondThin;startSize=14;startFill=1;edgeStyle=orthogonalEdgeStyle;align=left;verticalAlign=bottom;rounded=0;exitX=0.5;exitY=0;exitDx=0;exitDy=0;entryX=0.5;entryY=1;entryDx=0;entryDy=0;endFill=0;" edge="1" parent="WIyWlLk6GJQsqaUBKTNV-1" source="QFWBWIgybLpeq1G7iUkS-16" target="QFWBWIgybLpeq1G7iUkS-7">
          <mxGeometry x="-0.7867" y="-2" relative="1" as="geometry">
            <mxPoint x="3" y="254" as="sourcePoint" />
            <mxPoint x="163" y="254" as="targetPoint" />
            <mxPoint x="1" as="offset" />
          </mxGeometry>
        </mxCell>
        <mxCell id="7yv851JCd8LvZN7wa118-37" value="&lt;font style=&quot;font-size: 11px;&quot;&gt;*&lt;/font&gt;" style="text;html=1;align=center;verticalAlign=middle;resizable=0;points=[];autosize=1;strokeColor=none;fillColor=none;" vertex="1" parent="WIyWlLk6GJQsqaUBKTNV-1">
          <mxGeometry x="11" y="213" width="22" height="26" as="geometry" />
        </mxCell>
      </root>
    </mxGraphModel>
  </diagram>
</mxfile>
